
<!-- Generator: visioncortex VTracer 0.6.4 -->
<svg version="1.1" xmlns="http://www.w3.org/2000/svg" viewBox="0 0 476 174" preserveAspectRatio="xMidYMid meet">
<path d="M0 0 C4.688 1.893 6.716 4.879 9.355 9.066 C13.755 20.113 9.172 34.438 6.385 45.313 C3.644 54.849 3.644 54.849 5.688 64.188 C7.079 66.192 7.079 66.192 8.25 67.312 C11.624 67.813 11.624 67.813 15.25 67.312 C18.649 63.863 20.097 60.545 21.438 55.938 C21.771 54.799 22.105 53.661 22.449 52.488 C23.081 49.983 23.518 47.685 23.75 45.125 C23.915 44.197 24.08 43.269 24.25 42.312 C26.312 40.875 26.312 40.875 28.25 40.312 C39.087 50.821 39.087 50.821 41.27 55.496 C42.174 57.668 42.174 57.668 45.25 58.312 C47.438 60.25 47.438 60.25 49.25 62.312 C49.25 62.972 49.25 63.632 49.25 64.312 C50.57 64.642 51.89 64.972 53.25 65.312 C54.751 52.684 54.751 52.684 52.086 40.516 C48.158 30.163 47.965 18.459 52.25 8.312 C53.25 7.312 53.25 7.312 55.602 7.004 C58.25 7.312 58.25 7.312 60.023 9.027 C60.552 9.761 61.08 10.494 61.625 11.25 C64.156 14.349 65.03 15.234 68.938 16.625 C72.329 16.654 72.329 16.654 74.312 14.312 C75.272 12.828 75.272 12.828 76.25 11.312 C78.055 8.737 79.831 6.338 82.25 4.312 C86.062 3.812 86.062 3.812 89.25 4.312 C90.25 5.312 90.25 5.312 90.27 7.254 C89.814 13.026 88.773 18.421 87.25 24 C85.719 29.625 84.91 34.925 84.688 40.75 C84.442 46.817 83.48 51.687 81.25 57.312 C80.385 59.872 79.531 62.433 78.688 65 C76.25 72.312 76.25 72.312 75.188 75.484 C74.614 77.216 74.05 78.951 73.504 80.691 C71.521 86.954 69.314 91.922 64.25 96.312 C61.802 97.058 61.802 97.058 59.059 97.395 C58.042 97.522 57.025 97.65 55.978 97.782 C54.892 97.895 53.806 98.008 52.688 98.125 C51.558 98.25 50.428 98.374 49.264 98.503 C40.366 99.393 31.917 99.226 23.031 98.515 C5.858 97.264 -11.036 97.135 -28.188 98.375 C-41.906 99.363 -55.089 99.076 -68.75 97.312 C-70.104 97.163 -71.458 97.015 -72.812 96.867 C-78.68 96.106 -78.68 96.106 -80.75 95.312 C-81.852 93.305 -81.852 93.305 -82.75 91.312 C-84.235 90.817 -84.235 90.817 -85.75 90.312 C-86.672 88.137 -86.672 88.137 -87.5 85 C-87.835 83.735 -88.17 82.471 -88.516 81.168 C-88.706 80.42 -88.896 79.671 -89.092 78.9 C-89.854 75.905 -90.639 72.916 -91.422 69.926 C-95.159 55.475 -98.333 41.04 -100.75 26.312 C-100.942 25.196 -101.134 24.08 -101.332 22.93 C-102.132 17.919 -102.336 14.505 -100.062 9.875 C-97.75 7.312 -97.75 7.312 -95.336 6.922 C-91.215 7.544 -89.799 10.099 -87.266 13.199 C-85.635 15.473 -84.509 17.613 -83.75 20.312 C-80.45 20.642 -77.15 20.973 -73.75 21.312 C-72.574 19.147 -72.574 19.147 -71.375 16.938 C-69.964 14.339 -68.848 12.411 -66.75 10.312 C-62.491 9.737 -60.241 10.954 -56.75 13.312 C-56.09 13.642 -55.43 13.973 -54.75 14.312 C-51.854 23.002 -54.858 31.631 -58.688 39.562 C-59.955 41.99 -61.279 44.06 -62.875 46.312 C-66.551 52.194 -67.688 58.859 -66.25 65.688 C-66.085 66.224 -65.92 66.76 -65.75 67.312 C-61.702 68.8 -59.397 69.389 -55.062 68.875 C-50.834 66.88 -49.349 64.538 -47.75 60.312 C-46.924 57.497 -46.183 54.67 -45.469 51.824 C-44.651 48.966 -43.377 46.788 -41.75 44.312 C-41.039 42.328 -40.36 40.33 -39.75 38.312 C-38.1 38.312 -36.45 38.312 -34.75 38.312 C-34.489 38.836 -34.228 39.359 -33.959 39.898 C-27.196 54.957 -27.196 54.957 -16.75 67.312 C-13.285 67.655 -11.057 67.415 -7.75 66.312 C-7.418 60.229 -8.072 54.599 -9.125 48.625 C-9.251 47.901 -9.377 47.176 -9.507 46.43 C-10.276 42.245 -11.34 38.338 -12.75 34.312 C-14.846 26.639 -16.692 16.838 -13.996 9.168 C-10.684 4.236 -5.929 0.494 0 0 Z " fill="#080808" transform="translate(244.75,5.6875)"/>
<path d="M0 0 C2.662 0.034 5.324 0.067 7.985 0.099 C12.205 0.151 16.424 0.209 20.644 0.273 C22.223 0.296 23.801 0.318 25.38 0.338 C27.552 0.367 29.723 0.401 31.894 0.438 C33.734 0.466 33.734 0.466 35.612 0.494 C38.346 0.659 38.346 0.659 39.346 1.659 C39.33 3.655 39.33 3.655 39.096 6.097 C39.029 6.9 38.962 7.703 38.892 8.53 C38.346 10.659 38.346 10.659 35.346 12.659 C30.116 13.055 25.544 12.126 20.533 10.784 C11.526 8.534 2.591 7.387 -6.654 6.659 C-7.388 6.602 -8.122 6.544 -8.878 6.484 C-42.331 4.006 -76.763 4.821 -109.654 11.659 C-109.654 8.359 -109.654 5.059 -109.654 1.659 C-107.252 0.458 -105.797 0.553 -103.118 0.581 C-101.723 0.591 -101.723 0.591 -100.3 0.6 C-99.296 0.611 -98.291 0.621 -97.256 0.632 C-89.848 0.672 -82.457 0.652 -75.053 0.405 C-50.022 -0.385 -25.037 -0.327 0 0 Z " fill="#313030" transform="translate(267.65441131591797,110.34062576293945)"/>
<path d="M0 0 C2.715 0.075 4.424 0.466 6.441 2.336 C10 6.493 10 6.493 10 9 C11.32 9 12.64 9 14 9 C15.393 7.383 16.719 5.707 18 4 C20.951 1.049 22.389 0.086 26.562 -0.5 C30.675 0.098 31.374 0.884 34 4 C35.155 6.045 36.237 8.132 37.25 10.25 C38.031 11.866 38.031 11.866 38.828 13.516 C39.408 14.745 39.408 14.745 40 16 C43.859 12.646 45.803 8.06 48.184 3.617 C50 1 50 1 52.223 0.133 C52.809 0.089 53.396 0.045 54 0 C54 3.04 53.659 4.04 52.32 6.652 C51.792 7.694 51.792 7.694 51.254 8.756 C50.881 9.476 50.509 10.196 50.125 10.938 C49.76 11.654 49.395 12.37 49.02 13.107 C48.336 14.448 47.65 15.787 46.961 17.125 C45.961 19.077 44.978 21.037 44 23 C42.02 23 40.04 23 38 23 C36.323 20.068 34.66 17.129 33 14.188 C32.523 13.354 32.046 12.521 31.555 11.662 C31.104 10.86 30.652 10.057 30.188 9.23 C29.769 8.492 29.35 7.754 28.918 6.993 C28 5 28 5 28 2 C23.941 3.353 23.288 5.434 21 9 C20.113 9.949 19.226 10.898 18.312 11.875 C15.387 15.829 15.25 18.162 15 23 C13.35 22.67 11.7 22.34 10 22 C10.021 20.701 10.041 19.401 10.062 18.062 C9.488 12.291 6.222 9.646 2.031 5.945 C0 4 0 4 -1 1 C-0.67 0.67 -0.34 0.34 0 0 Z " fill="#4E4E4E" transform="translate(135,137)"/>
<path d="M0 0 C3.764 0.186 5.566 0.614 8.414 3.145 C9.144 4.025 9.873 4.905 10.625 5.812 C13.317 9.009 15.999 12.088 19 15 C19.652 10.276 20.12 5.78 20 1 C21.938 0.438 21.938 0.438 24 0 C25 1 25 1 25.114 3.133 C25.108 4.049 25.103 4.966 25.098 5.91 C25.094 6.9 25.091 7.889 25.088 8.908 C25.08 9.949 25.071 10.99 25.062 12.062 C25.058 13.107 25.053 14.152 25.049 15.229 C25.037 17.819 25.021 20.41 25 23 C19.328 23.273 19.328 23.273 16.375 20.812 C15.591 19.884 14.808 18.956 14 18 C13.237 17.113 12.474 16.226 11.688 15.312 C10 13 10 13 10 11 C9.34 11 8.68 11 8 11 C7.01 10.01 6.02 9.02 5 8 C5 12.95 5 17.9 5 23 C3.02 23 1.04 23 -1 23 C-1.029 19.354 -1.047 15.708 -1.062 12.062 C-1.071 11.022 -1.079 9.981 -1.088 8.908 C-1.093 7.424 -1.093 7.424 -1.098 5.91 C-1.103 4.994 -1.108 4.077 -1.114 3.133 C-1 1 -1 1 0 0 Z " fill="#6A6969" transform="translate(360,137)"/>
<path d="M0 0 C4.937 0.385 7.337 2.854 10.562 6.312 C11.265 7.042 11.265 7.042 11.982 7.787 C13.328 9.185 14.664 10.593 16 12 C17.32 13.32 18.64 14.64 20 16 C20 11.05 20 6.1 20 1 C21.32 0.67 22.64 0.34 24 0 C26 2 26 2 26.23 4.25 C26.132 10.549 25.76 16.745 25 23 C22.391 23.398 22.391 23.398 19 23 C16.565 21.18 14.698 18.945 12.75 16.625 C12.221 16.022 11.693 15.418 11.148 14.797 C10.169 13.678 9.196 12.553 8.233 11.42 C7.205 10.236 6.109 9.109 5 8 C4.67 12.95 4.34 17.9 4 23 C2.35 23 0.7 23 -1 23 C-1.027 20.104 -1.047 17.208 -1.062 14.312 C-1.071 13.496 -1.079 12.679 -1.088 11.838 C-1.104 7.755 -1.03 3.983 0 0 Z " fill="#6A6A6A" transform="translate(328,137)"/>
<path d="M0 0 C7.214 0.004 11.802 0.492 17.312 5.438 C19.34 9.088 19.812 12.22 18.875 16.25 C17.114 19.266 15.048 21.664 11.875 23.25 C10.354 23.334 8.828 23.357 7.305 23.348 C6.409 23.344 5.513 23.341 4.59 23.338 C3.653 23.33 2.716 23.321 1.75 23.312 C0.805 23.308 -0.14 23.303 -1.113 23.299 C-3.451 23.287 -5.788 23.271 -8.125 23.25 C-8.154 19.604 -8.172 15.958 -8.188 12.312 C-8.196 11.272 -8.204 10.231 -8.213 9.158 C-8.218 7.674 -8.218 7.674 -8.223 6.16 C-8.228 5.244 -8.233 4.327 -8.239 3.383 C-7.987 -1.34 -3.874 0.045 0 0 Z M-4.125 5.25 C-4.198 7.603 -4.209 9.958 -4.188 12.312 C-4.178 13.603 -4.169 14.893 -4.16 16.223 C-4.149 17.222 -4.137 18.221 -4.125 19.25 C-0.804 20.357 1.397 20.288 4.875 20.062 C5.927 20.007 6.979 19.952 8.062 19.895 C10.963 19.494 10.963 19.494 12.723 17.387 C14.313 14.439 14.356 12.551 13.875 9.25 C12.008 6.947 10.519 5.572 7.875 4.25 C6.023 4.154 4.167 4.12 2.312 4.125 C0.826 4.121 0.826 4.121 -0.691 4.117 C-3.073 3.976 -3.073 3.976 -4.125 5.25 Z " fill="#494848" transform="translate(258.125,136.75)"/>
<path d="M0 0 C3.872 2.006 6.389 4.182 7.91 8.27 C7.91 12.694 7.169 14.877 4.723 18.582 C1.059 22.082 -1.395 23.158 -6.449 23.367 C-12.005 23.157 -15.797 22.023 -19.805 18.082 C-22.167 14.751 -22.219 12.349 -22.09 8.27 C-20.596 4.162 -18.061 2.01 -14.18 0 C-9.514 -1.631 -4.666 -1.631 0 0 Z M-14.715 4.832 C-16.581 8.141 -16.43 10.527 -16.09 14.27 C-15.406 17.261 -15.406 17.261 -13.527 18.457 C-10.013 19.629 -6.723 19.831 -3.09 19.27 C0.038 17.967 0.038 17.967 1.91 15.27 C2.826 11.314 2.488 8.32 0.535 4.77 C-4.286 2.015 -9.937 1.988 -14.715 4.832 Z " fill="#5E5D5D" transform="translate(213.08984375,137.73046875)"/>
<path d="M0 0 C4.213 0.377 6.132 1.651 9 4.688 C9.683 5.404 10.366 6.121 11.07 6.859 C12.718 8.687 14.315 10.535 15.875 12.438 C17.742 15.039 17.742 15.039 20 16 C20 11.05 20 6.1 20 1 C21.32 0.67 22.64 0.34 24 0 C25 1 25 1 25.114 3.133 C25.108 4.049 25.103 4.966 25.098 5.91 C25.094 6.9 25.091 7.889 25.088 8.908 C25.08 9.949 25.071 10.99 25.062 12.062 C25.058 13.107 25.053 14.152 25.049 15.229 C25.037 17.819 25.021 20.41 25 23 C22.324 23.336 22.324 23.336 19 23 C16.332 20.664 16.332 20.664 13.812 17.625 C10.282 13.397 10.282 13.397 6 10 C6 9.34 6 8.68 6 8 C5.34 8 4.68 8 4 8 C3.67 12.95 3.34 17.9 3 23 C1.68 22.67 0.36 22.34 -1 22 C-1.029 18.521 -1.047 15.042 -1.062 11.562 C-1.071 10.569 -1.079 9.576 -1.088 8.553 C-1.091 7.608 -1.094 6.664 -1.098 5.691 C-1.103 4.817 -1.108 3.942 -1.114 3.041 C-1 1 -1 1 0 0 Z " fill="#656565" transform="translate(106,137)"/>
<path d="M0 0 C0.99 0.495 0.99 0.495 2 1 C1.726 7.458 0.709 13.46 -1 19.688 C-2.532 25.312 -3.34 30.613 -3.562 36.438 C-3.808 42.504 -4.77 47.375 -7 53 C-7.865 55.559 -8.719 58.121 -9.562 60.688 C-12 68 -12 68 -13.062 71.172 C-13.636 72.903 -14.2 74.638 -14.746 76.379 C-16.729 82.642 -18.936 87.609 -24 92 C-26.448 92.745 -26.448 92.745 -29.191 93.082 C-30.209 93.21 -31.226 93.338 -32.275 93.47 C-33.36 93.583 -34.445 93.696 -35.562 93.812 C-36.684 93.937 -37.806 94.062 -38.962 94.19 C-47.968 95.096 -56.595 94.989 -65.591 94.194 C-70.117 93.83 -74.653 93.648 -79.188 93.438 C-80.889 93.353 -82.591 93.269 -84.293 93.184 C-85.516 93.123 -86.74 93.062 -88 93 C-88 92.67 -88 92.34 -88 92 C-83.461 91.975 -78.922 91.957 -74.383 91.945 C-72.838 91.94 -71.293 91.933 -69.747 91.925 C-67.531 91.912 -65.314 91.907 -63.098 91.902 C-62.403 91.897 -61.708 91.892 -60.992 91.887 C-59.328 91.887 -57.663 91.938 -56 92 C-55.67 92.33 -55.34 92.66 -55 93 C-50.653 92.907 -46.327 92.411 -42 92 C-41.307 91.945 -40.613 91.889 -39.899 91.833 C-37.763 91.661 -35.632 91.459 -33.5 91.25 C-32.19 91.131 -30.881 91.013 -29.531 90.891 C-25.24 89.808 -23.719 88.45 -21 85 C-19.469 82.193 -19.469 82.193 -18.375 79.188 C-17.962 78.129 -17.55 77.071 -17.125 75.98 C-16.568 74.505 -16.568 74.505 -16 73 C-15.711 72.295 -15.423 71.59 -15.125 70.863 C-13.168 66.001 -11.963 61.021 -10.758 55.926 C-10.11 53.426 -9.319 51.146 -8.375 48.75 C-6.972 44.747 -6.813 41.105 -6.688 36.875 C-6.434 28.52 -4.361 20.818 -2.083 12.806 C-1.817 11.866 -1.551 10.926 -1.277 9.957 C-1.032 9.121 -0.787 8.286 -0.535 7.425 C0.027 4.878 0.095 2.6 0 0 Z " fill="#EBEBEB" transform="translate(333,10)"/>
<path d="M0 0 C3.792 -0.087 7.583 -0.14 11.375 -0.188 C12.995 -0.225 12.995 -0.225 14.648 -0.264 C15.68 -0.273 16.711 -0.283 17.773 -0.293 C18.727 -0.309 19.68 -0.324 20.662 -0.341 C21.819 -0.172 21.819 -0.172 23 0 C23.66 0.99 24.32 1.98 25 3 C24 4 24 4 21.934 4.098 C21.11 4.086 20.286 4.074 19.438 4.062 C18.611 4.053 17.785 4.044 16.934 4.035 C16.296 4.024 15.657 4.012 15 4 C15.012 5.288 15.023 6.576 15.035 7.902 C15.045 9.581 15.054 11.259 15.062 12.938 C15.071 13.788 15.079 14.638 15.088 15.514 C15.093 16.727 15.093 16.727 15.098 17.965 C15.106 19.088 15.106 19.088 15.114 20.234 C15 22 15 22 14 23 C12.35 23 10.7 23 9 23 C9 16.73 9 10.46 9 4 C5.7 4 2.4 4 -1 4 C-0.67 2.68 -0.34 1.36 0 0 Z " fill="#787777" transform="translate(289,137)"/>
<path d="M0 0 C2.715 0.075 4.424 0.466 6.441 2.336 C10 6.493 10 6.493 10 9 C11.32 9 12.64 9 14 9 C15.393 7.383 16.719 5.707 18 4 C19.634 2.626 21.293 1.281 23 0 C24.32 0.66 25.64 1.32 27 2 C26.59 2.398 26.18 2.797 25.758 3.207 C19.83 9.253 15 14.241 15 23 C13.35 22.67 11.7 22.34 10 22 C10.021 20.701 10.041 19.401 10.062 18.062 C9.488 12.291 6.222 9.646 2.031 5.945 C0 4 0 4 -1 1 C-0.67 0.67 -0.34 0.34 0 0 Z " fill="#525151" transform="translate(135,137)"/>
<path d="M0 0 C1.98 0.495 1.98 0.495 4 1 C4 6.94 4 12.88 4 19 C9.28 19 14.56 19 20 19 C20.33 20.32 20.66 21.64 21 23 C13.74 23 6.48 23 -1 23 C-1.021 19.391 -1.041 15.781 -1.062 12.062 C-1.072 10.923 -1.081 9.784 -1.09 8.61 C-1.093 7.719 -1.095 6.828 -1.098 5.91 C-1.103 4.994 -1.108 4.077 -1.114 3.133 C-1 1 -1 1 0 0 Z " fill="#666666" transform="translate(226,137)"/>
<path d="M0 0 C3.154 3.154 2.482 6.969 2.52 11.205 C2.338 19.707 0.237 27.798 -1.865 36 C-4.421 45.952 -4.421 45.952 -3 56 C-3.99 55.67 -4.98 55.34 -6 55 C-8.907 48.129 -6.228 40.952 -4.062 34.312 C-0.521 22.828 0 11.946 0 0 Z " fill="#E1E1E1" transform="translate(253,15)"/>
<path d="M0 0 C1.32 0 2.64 0 4 0 C4 7.59 4 15.18 4 23 C2.68 23 1.36 23 0 23 C-0.196 19.542 -0.381 16.084 -0.562 12.625 C-0.619 11.64 -0.675 10.655 -0.732 9.641 C-0.805 8.229 -0.805 8.229 -0.879 6.789 C-0.926 5.92 -0.973 5.05 -1.022 4.155 C-1 2 -1 2 0 0 Z " fill="#787777" transform="translate(317,137)"/>
<path d="M0 0 C0.66 0 1.32 0 2 0 C1.67 0.99 1.34 1.98 1 3 C0.67 2.01 0.34 1.02 0 0 Z M2 3 C2.33 3 2.66 3 3 3 C3.594 13.689 0.023 23.32 -6.125 32 C-9.801 37.881 -10.938 44.546 -9.5 51.375 C-9.335 51.911 -9.17 52.447 -9 53 C-11.13 51.288 -11.93 50.381 -12.434 47.652 C-12.447 38.503 -9.992 31.965 -5 24.375 C-0.875 17.841 0.425 10.468 2 3 Z " fill="#EFEFEF" transform="translate(188,20)"/>
<path d="M0 0 C1.65 0 3.3 0 5 0 C5.261 0.523 5.522 1.046 5.791 1.585 C10.746 11.445 15.474 20.823 23 29 C22.01 29.33 21.02 29.66 20 30 C14.682 24.102 10.688 18.004 7 11 C6.404 9.869 6.404 9.869 5.795 8.715 C3 3.283 3 3.283 3 1 C2.34 1 1.68 1 1 1 C0.67 1.66 0.34 2.32 0 3 C0 2.01 0 1.02 0 0 Z " fill="#7E7E7E" transform="translate(205,44)"/>
<path d="M0 0 C2.793 2.399 2.984 2.879 3.5 6.812 C3.34 11.62 1.373 13.708 -2 17 C-4.401 18.2 -5.894 18.115 -8.57 18.098 C-9.466 18.094 -10.362 18.091 -11.285 18.088 C-12.222 18.08 -13.159 18.071 -14.125 18.062 C-15.07 18.058 -16.015 18.053 -16.988 18.049 C-19.326 18.037 -21.663 18.021 -24 18 C-24 17.67 -24 17.34 -24 17 C-22.747 16.951 -21.494 16.902 -20.203 16.852 C-18.552 16.777 -16.901 16.701 -15.25 16.625 C-14.425 16.594 -13.6 16.563 -12.75 16.531 C-11.551 16.473 -11.551 16.473 -10.328 16.414 C-9.228 16.367 -9.228 16.367 -8.106 16.319 C-5.685 15.952 -4.074 15.299 -2 14 C0.281 10.579 0.219 9.318 0.125 5.312 C0.098 3.822 0.098 3.822 0.07 2.301 C0.047 1.542 0.024 0.782 0 0 Z " fill="#FBFBFB" transform="translate(274,142)"/>
<path d="M0 0 C0.66 0.66 1.32 1.32 2 2 C1.702 2.565 1.405 3.13 1.098 3.712 C-0.247 6.266 -1.592 8.821 -2.938 11.375 C-3.406 12.264 -3.875 13.154 -4.357 14.07 C-5.029 15.346 -5.029 15.346 -5.715 16.648 C-6.129 17.434 -6.542 18.219 -6.969 19.029 C-7.658 20.346 -8.335 21.67 -9 23 C-10.98 23 -12.96 23 -15 23 C-14.398 22.769 -13.795 22.538 -13.175 22.299 C-10.407 20.646 -9.652 19.074 -8.203 16.211 C-7.72 15.27 -7.236 14.329 -6.738 13.359 C-6.247 12.375 -5.756 11.39 -5.25 10.375 C-4.49 8.886 -4.49 8.886 -3.715 7.367 C-2.466 4.917 -1.228 2.461 0 0 Z " fill="#F9F9F9" transform="translate(188,137)"/>
<path d="M0 0 C0.99 0.33 1.98 0.66 3 1 C2.385 1.597 2.385 1.597 1.758 2.207 C-4.17 8.253 -9 13.241 -9 22 C-10.32 21.67 -11.64 21.34 -13 21 C-12.01 21 -11.02 21 -10 21 C-10.081 20.443 -10.162 19.886 -10.246 19.312 C-10.556 15.563 -10.642 12.99 -8.547 9.762 C-6.76 7.768 -4.892 5.892 -3 4 C-1.978 2.683 -0.972 1.354 0 0 Z " fill="#F8F8F8" transform="translate(159,138)"/>
<path d="M0 0 C1.447 2.894 0.287 4.853 -0.516 7.84 C-1.511 12.279 -1.386 16.669 0 21 C-0.99 20.67 -1.98 20.34 -3 20 C-5.555 13.961 -3.858 6.986 -2 1 C-1.34 0.67 -0.68 0.34 0 0 Z " fill="#F3F3F3" transform="translate(250,50)"/>
<path d="M0 0 C2.438 0.375 2.438 0.375 5 1 C5.33 1.66 5.66 2.32 6 3 C3.133 2.427 2.139 2.139 0 0 Z M6 3 C6.99 3 7.98 3 9 3 C10.858 6.135 11.201 8.375 11 12 C9.889 9.927 9.026 8.114 8.5 5.812 C8.335 5.214 8.17 4.616 8 4 C7.34 3.67 6.68 3.34 6 3 Z M9 12 C10 16 10 16 10 16 Z M8 16 C8.625 17.812 8.625 17.812 9 20 C8.34 20.99 7.68 21.98 7 23 C7.33 20.69 7.66 18.38 8 16 Z M6 23 C6 26 6 26 6 26 Z " fill="#2D2D2D" transform="translate(179,16)"/>
<path d="M0 0 C0 0.33 0 0.66 0 1 C-0.922 1.056 -0.922 1.056 -1.863 1.113 C-3.076 1.212 -3.076 1.212 -4.312 1.312 C-5.113 1.371 -5.914 1.429 -6.738 1.488 C-9.456 2.103 -10.412 2.719 -12 5 C-12.361 7.283 -12.361 7.283 -12.188 9.688 C-12.147 10.9 -12.147 10.9 -12.105 12.137 C-12.071 12.752 -12.036 13.366 -12 14 C-12.99 13.34 -13.98 12.68 -15 12 C-15.881 5.174 -15.881 5.174 -13.125 1.5 C-8.725 -0.612 -4.796 -0.335 0 0 Z " fill="#FAFAFA" transform="translate(210,140)"/>
<path d="M0 0 C2 1 2 1 2 1 Z M6 5 C8.129 6.839 8.944 7.771 9.625 10.562 C10.746 13.17 10.746 13.17 13.125 13.766 C15.412 14.266 17.681 14.68 20 15 C20 15.33 20 15.66 20 16 C15.522 16.176 11.953 16.259 8 14 C5.864 11.05 5.801 8.575 6 5 Z " fill="#939393" transform="translate(150,13)"/>
<path d="M0 0 C3.677 0.283 6.297 0.519 9.375 2.625 C11.481 5.703 11.717 8.323 12 12 C10 10 10 10 8.625 7.562 C6.96 4.938 5.571 3.687 3 2 C2.01 1.34 1.02 0.68 0 0 Z M-3 2 C-1 3 -1 3 -1 3 Z " fill="#525252" transform="translate(241,6)"/>
<path d="M0 0 C0.958 3.051 1.076 3.801 -0.125 6.938 C-2.101 10.165 -4.152 12.517 -7 15 C-7.66 15 -8.32 15 -9 15 C-8.05 12.881 -7.252 11.241 -5.562 9.625 C-3.814 7.807 -2.892 6.084 -1.812 3.812 C-1.468 3.097 -1.124 2.382 -0.77 1.645 C-0.516 1.102 -0.262 0.559 0 0 Z " fill="#FBFBFB" transform="translate(316,87)"/>
<path d="M0 0 C2.262 -0.25 2.262 -0.25 5 0 C7.02 1.75 7.02 1.75 8.812 4 C9.417 4.742 10.022 5.485 10.645 6.25 C11.092 6.828 11.539 7.405 12 8 C11.01 8.495 11.01 8.495 10 9 C9.278 8.258 8.556 7.515 7.812 6.75 C5.314 4.307 2.764 2.132 0 0 Z " fill="#2D2D2D" transform="translate(298,13)"/>
<path d="M0 0 C0.99 0.33 1.98 0.66 3 1 C2.847 1.521 2.693 2.042 2.535 2.578 C1.86 5.633 1.656 8.63 1.438 11.75 C1.354 12.92 1.27 14.091 1.184 15.297 C1.123 16.189 1.062 17.081 1 18 C0.01 17.67 -0.98 17.34 -2 17 C-1.34 17 -0.68 17 0 17 C0 11.39 0 5.78 0 0 Z " fill="#F8F8F8" transform="translate(108,142)"/>
<path d="M0 0 C1.316 0.953 2.628 1.913 3.938 2.875 C4.668 3.409 5.399 3.942 6.152 4.492 C8 6 8 6 9 8 C7.35 7.67 5.7 7.34 4 7 C3.67 6.01 3.34 5.02 3 4 C2.01 3.67 1.02 3.34 0 3 C0 2.01 0 1.02 0 0 Z " fill="#8C8C8C" transform="translate(159,93)"/>
<path d="M0 0 C2.438 0.375 2.438 0.375 5 1 C5.33 1.66 5.66 2.32 6 3 C3.133 2.427 2.139 2.139 0 0 Z M6 3 C6.99 3 7.98 3 9 3 C9.33 4.32 9.66 5.64 10 7 C9.34 6.67 8.68 6.34 8 6 C8 5.34 8 4.68 8 4 C7.34 3.67 6.68 3.34 6 3 Z " fill="#565656" transform="translate(179,16)"/>
<path d="M0 0 C1.32 1.65 2.64 3.3 4 5 C1.525 4.01 1.525 4.01 -1 3 C-0.67 2.01 -0.34 1.02 0 0 Z " fill="#A7A6A6" transform="translate(306,17)"/>
<path d="M0 0 C1.32 1.32 2.64 2.64 4 4 C2.68 3.67 1.36 3.34 0 3 C0 2.01 0 1.02 0 0 Z " fill="#5C5C5C" transform="translate(159,93)"/>
</svg>